<svg width="33" height="44" viewBox="0 0 33 44" fill="none" xmlns="http://www.w3.org/2000/svg">
<path d="M31.5 16.352C31.5 25.855 23.5 34 16.5 34C9.5 34 1.5 25.855 1.5 16.352C1.5 8.654 7.393 2 16.5 2C25.607 2 31.5 8.654 31.5 16.352Z" stroke="#3C3C3C" stroke-width="3" stroke-linecap="round" stroke-linejoin="round"/>
<path d="M17.5 2C21.2 5.819 24.5 12.12 24.5 18C24.5 23.807 21.12 30.192 17.5 34" stroke="#3C3C3C" stroke-width="3" stroke-miterlimit="2" stroke-linecap="round" stroke-linejoin="round"/>
<path d="M15.5 2C11.183 6.087 8.5 11.706 8.5 18C8.5 24.215 11.277 29.924 15.5 34" stroke="#3C3C3C" stroke-width="3" stroke-miterlimit="2" stroke-linecap="round" stroke-linejoin="round"/>
<path d="M14.5 14.018C14.5 14.018 19.565 15.035 23.5 14.018C27.435 13 30.5 11 30.5 11" stroke="#3C3C3C" stroke-width="3" stroke-linecap="round" stroke-linejoin="round"/>
<path d="M1.5 18C1.5 18 6.5 20.5 10.5 21.5C14.5 22.5 18.5 22 18.5 22" stroke="#3C3C3C" stroke-width="3" stroke-linecap="round" stroke-linejoin="round"/>
<path d="M22.5 33L22.494 33.03L22.5 33ZM22.494 33.03L21.1 40.095C21.1 40.095 18.375 42 16.5 42C14.625 42 11.9 40.095 11.9 40.095L10.5 33L16.5 34L22.494 33.03Z" stroke="#3C3C3C" stroke-width="3" stroke-linecap="round" stroke-linejoin="round"/>
</svg>
