<svg width="25" height="24" viewBox="0 0 25 24" fill="none" xmlns="http://www.w3.org/2000/svg">
<path d="M24.834 12C24.834 15.1826 23.5697 18.2348 21.3193 20.4853C19.0688 22.7357 16.0166 24 12.834 24C9.65139 24 6.59914 22.7357 4.3487 20.4853C2.09827 18.2348 0.833984 15.1826 0.833984 12C0.833984 8.8174 2.09827 5.76516 4.3487 3.51472C6.59914 1.26428 9.65139 0 12.834 0C16.0166 0 19.0688 1.26428 21.3193 3.51472C23.5697 5.76516 24.834 8.8174 24.834 12ZM18.879 7.455C18.7718 7.34823 18.6443 7.26416 18.5039 7.20782C18.3635 7.15149 18.2132 7.12404 18.062 7.12712C17.9107 7.1302 17.7617 7.16375 17.6237 7.22575C17.4857 7.28776 17.3617 7.37695 17.259 7.488L12.0495 14.1255L8.90998 10.9845C8.69672 10.7858 8.41465 10.6776 8.1232 10.6827C7.83175 10.6879 7.55367 10.8059 7.34755 11.0121C7.14143 11.2182 7.02336 11.4963 7.01822 11.7877C7.01308 12.0792 7.12126 12.3612 7.31998 12.5745L11.289 16.545C11.3959 16.6517 11.5232 16.7358 11.6634 16.7923C11.8035 16.8487 11.9536 16.8764 12.1046 16.8736C12.2557 16.8708 12.4046 16.8376 12.5425 16.776C12.6805 16.7144 12.8046 16.6256 12.9075 16.515L18.8955 9.03C19.0996 8.81775 19.2124 8.53391 19.2096 8.23944C19.2068 7.94496 19.0886 7.66332 18.8805 7.455H18.879Z" fill="#3C3C3C"/>
</svg>
