<svg width="40" height="40" viewBox="0 0 40 40" fill="none" xmlns="http://www.w3.org/2000/svg">
<path d="M21.4408 17.5998C20.4808 17.3598 19.5208 16.8798 18.8008 16.1598C18.0808 15.9198 17.8408 15.1998 17.8408 14.7198C17.8408 14.2398 18.0808 13.5198 18.5608 13.2798C19.2808 12.7998 20.0008 12.3198 20.7208 12.5598C22.1608 12.5598 23.3608 13.2798 24.0808 14.2398L26.2408 11.3598C25.5208 10.6398 24.8008 10.1598 24.0808 9.6798C23.3608 9.1998 22.4008 8.9598 21.4408 8.9598V5.5998H18.5608V8.9598C17.3608 9.1998 16.1608 9.9198 15.2008 10.8798C14.2408 12.0798 13.5208 13.5198 13.7608 14.9598C13.7608 16.3998 14.2408 17.8398 15.2008 18.7998C16.4008 19.9998 18.0808 20.7198 19.5208 21.4398C20.2408 21.6798 21.2008 22.1598 21.9208 22.6398C22.4008 23.1198 22.6408 23.8398 22.6408 24.5598C22.6408 25.2798 22.4008 25.9998 21.9208 26.7198C21.2008 27.4398 20.2408 27.6798 19.5208 27.6798C18.5608 27.6798 17.3608 27.4398 16.6408 26.7198C15.9208 26.2398 15.2008 25.5198 14.7208 24.7998L12.3208 27.4398C13.0408 28.3998 13.7608 29.1198 14.7208 29.8398C15.9208 30.5598 17.3608 31.2798 18.8008 31.2798V34.3998H21.4408V30.7998C22.8808 30.5598 24.0808 29.8398 25.0408 28.8798C26.2408 27.6798 26.9608 25.7598 26.9608 24.0798C26.9608 22.6398 26.4808 20.9598 25.2808 19.9998C24.0808 18.7998 22.8808 18.0798 21.4408 17.5998ZM20.0008 0.799805C9.44078 0.799805 0.800781 9.4398 0.800781 19.9998C0.800781 30.5598 9.44078 39.1998 20.0008 39.1998C30.5608 39.1998 39.2008 30.5598 39.2008 19.9998C39.2008 9.4398 30.5608 0.799805 20.0008 0.799805ZM20.0008 36.5598C10.8808 36.5598 3.44078 29.1198 3.44078 19.9998C3.44078 10.8798 10.8808 3.4398 20.0008 3.4398C29.1208 3.4398 36.5608 10.8798 36.5608 19.9998C36.5608 29.1198 29.1208 36.5598 20.0008 36.5598Z" fill="#D22222"/>
</svg>
