<svg width="121" height="51" viewBox="0 0 121 51" fill="none" xmlns="http://www.w3.org/2000/svg">
<path d="M104.091 22.2759C102.069 22.7436 96.728 23.0034 96.728 23.0034L96.0712 25.1167C96.0712 25.1167 98.7157 24.8915 100.652 25.0821C100.652 25.0821 101.274 25.0301 101.343 25.775C101.377 26.5371 101.291 27.3339 101.291 27.3339C101.291 27.3339 101.239 27.8016 100.6 27.9229C99.8564 28.0441 94.844 28.2693 94.844 28.2693L94.0316 31.0062C94.0316 31.0062 93.7378 31.6298 94.4118 31.4566C95.0341 31.2834 100.289 30.2787 100.98 30.4173C101.706 30.5905 102.536 31.5952 102.294 32.4959C102.017 33.5872 96.7625 36.9477 93.5822 36.7225C93.5822 36.7225 91.9056 36.8264 90.5056 34.5572C89.1574 32.392 90.9723 28.3213 90.9723 28.3213C90.9723 28.3213 90.1599 26.4159 90.7648 25.723C90.7648 25.723 91.1105 25.4285 92.1476 25.3419L93.4439 22.6743C93.4439 22.6743 91.9747 22.7609 91.1105 21.6869C90.3154 20.6476 90.2463 20.1973 90.8686 19.9201C91.5254 19.5737 97.6095 18.4824 101.792 18.6209C101.792 18.6209 103.261 18.4477 104.558 20.9941C104.558 20.9941 105.145 22.0334 104.108 22.2759H104.091ZM88.3277 32.5305C87.8092 33.7951 86.3746 35.1289 84.6462 34.3147C82.8832 33.4833 80.1004 27.8016 80.1004 27.8016C80.1004 27.8016 79.0633 25.6883 78.8559 25.7576C78.8559 25.7576 78.6312 25.3419 78.5102 27.6631C78.3374 29.9669 78.5448 34.4533 77.5941 35.1635C76.7299 35.8564 75.6929 35.5619 75.1052 34.7478C74.6212 33.9336 74.4138 31.9762 74.6904 28.5638C75.0015 25.1514 75.7793 21.5137 76.7645 20.3878C77.8016 19.2445 78.6312 20.076 78.9423 20.3878C78.9423 20.3878 80.2732 21.6003 82.5202 25.186L82.9005 25.8442C82.9005 25.8442 84.94 29.2567 85.1474 29.2394C85.1474 29.2394 85.3203 29.4126 85.4585 29.274C85.6659 29.222 85.5968 28.1134 85.5968 28.1134C85.5968 28.1134 85.2166 24.4238 83.3153 18.1879C83.3153 18.1879 83.0387 17.3911 83.2289 16.6289C83.4017 15.936 84.1449 16.2825 84.1449 16.2825C84.1449 16.2825 87.0141 17.6682 88.4142 22.3452C89.7969 27.0221 88.8636 31.266 88.345 32.5305H88.3277ZM74.2583 20.5264C73.9817 21.0114 73.8607 21.6869 72.6681 21.8775C72.6681 21.8775 61.0876 22.6916 60.5172 23.5058C60.5172 23.5058 60.1369 23.9908 60.7591 24.112C61.416 24.2506 64.0432 24.597 65.2877 24.6663C66.6358 24.6663 71.1643 24.701 72.8236 26.745C72.8236 26.745 73.7743 27.715 73.7397 29.9149C73.7052 32.1668 73.3076 32.9636 72.4261 33.7777C71.51 34.5399 63.6629 38.0736 58.5986 32.6691C58.5986 32.6691 56.2825 30.0708 59.411 28.0961C59.411 28.0961 61.6579 26.7103 67.4136 28.3213C67.4136 28.3213 69.1421 28.9449 69.0729 29.5858C68.9692 30.2787 67.6383 30.9716 65.7025 30.9369C63.8358 30.885 62.453 29.9842 62.7296 30.1401C62.9888 30.2267 60.7073 29.0315 59.9986 29.8456C59.3073 30.6078 59.4801 31.0582 60.1715 31.5259C61.8999 32.5305 68.6927 32.1668 70.715 29.8976C70.715 29.8976 71.5273 28.9795 70.3001 28.2347C69.0902 27.5418 65.5642 27.1087 64.1987 27.0568C62.9024 26.9875 58.0455 27.0568 57.3196 25.7923C57.3196 25.7923 56.6282 24.8915 57.3887 22.4318C58.1838 19.8335 63.8358 18.8288 66.2902 18.6209C66.2902 18.6209 73.0311 18.3438 74.2928 19.7296C74.2928 19.7296 74.4657 20.0414 74.2583 20.5091V20.5264ZM55.1417 35.7524C54.3294 36.3587 52.6009 36.0989 52.0997 35.406C51.6157 34.7997 51.4429 32.4093 51.5293 28.6504C51.6503 24.8049 51.7021 20.0933 52.5663 19.3312C53.4306 18.5863 53.9491 19.2445 54.2948 19.7469C54.6405 20.2665 55.0899 20.8382 55.159 22.0334C55.2627 23.2459 55.5565 29.4819 55.5565 29.4819C55.5565 29.4819 55.9368 35.1635 55.159 35.7524H55.1417ZM56.8702 15.4857C54.4849 16.2998 52.8602 16.04 51.4774 15.4337C50.8725 16.525 50.5095 16.8541 50.0601 16.9234C49.3687 16.9927 48.7638 15.8841 48.6774 15.5376C48.5391 15.2778 48.2107 14.8101 48.6082 13.7535C47.26 12.5409 47.1563 10.9126 47.3983 9.82135C47.7094 8.53952 49.991 3.72399 56.9047 3.15236C56.9047 3.15236 60.2925 2.90986 60.8801 4.71135H60.9838C60.9838 4.71135 64.2679 4.71135 64.1987 7.6561C64.1987 10.6008 60.569 14.2731 56.8702 15.5376V15.4857ZM59.9468 7.10179C57.7689 7.44823 54.4158 10.3583 52.8083 12.7661C55.28 13.2165 59.6011 13.0433 61.5369 9.12847C61.5369 9.12847 62.453 6.66874 59.9468 7.10179ZM50.3885 9.00721C49.6971 10.1331 49.6626 10.8087 49.991 11.2591C50.8033 10.0465 52.2379 8.14111 54.3985 6.65142C52.7392 6.82464 51.3392 7.51752 50.3885 9.00721ZM109.276 35.6312C107.686 39.546 106.338 43.5127 105.56 49.4542C105.56 49.4542 105.387 50.6148 104.437 50.2337C103.486 49.8872 101.931 48.3282 101.585 46.1283C101.239 43.2529 102.518 38.4027 105.128 32.825C104.368 31.6125 103.832 29.811 104.264 27.282C104.264 27.282 104.955 22.605 109.622 18.3784C109.622 18.3784 110.175 17.9107 110.486 18.0666C110.867 18.2399 110.711 19.7296 110.4 20.4917C110.123 21.2193 108.049 24.8222 108.049 24.8222C108.049 24.8222 106.753 27.282 107.116 29.2047C109.57 25.4285 115.153 17.7722 118.61 20.1973C120.805 21.7562 120.805 26.7796 119.163 29.6897C117.867 31.9936 114.202 36.7571 109.311 35.6485L109.276 35.6312ZM116.501 23.8695C115.222 25.2553 112.941 27.8882 111.143 31.4566C113.044 31.2487 114.894 30.1921 115.464 29.6551C116.38 28.841 118.489 26.6411 118.161 23.7309C118.161 23.7309 117.953 22.2066 116.501 23.8695ZM39.0672 37.6752C32.9486 39.546 27.1756 38.6799 24.0298 37.8484C23.9434 39.1302 23.8051 39.6672 23.5977 39.8751C23.3557 40.1522 21.3507 41.2955 20.2445 39.6672C19.7606 38.8877 19.5186 37.4846 19.3803 36.2028C12.2937 32.9809 9.00969 28.2347 8.90598 28.0615C8.73314 27.8882 7.12569 26.208 8.73314 24.1294C10.2369 22.2586 15.2148 20.3705 19.6742 19.6256C19.847 15.8148 20.2618 12.87 20.7976 11.5709C21.4372 10.0119 22.2495 11.3977 22.9755 12.437C23.5631 13.2165 23.9261 16.5596 23.9607 19.2272C26.8645 19.0886 28.6275 19.2965 31.8596 19.9201C36.1116 20.6476 38.9462 22.8302 38.7215 25.2899C38.5141 27.715 36.3017 28.7197 35.4375 28.789C34.5733 28.8583 33.1905 28.2174 33.1905 28.2174C32.2226 27.767 33.1041 27.3513 34.2276 26.8662C35.4721 26.26 35.1955 25.6537 35.1955 25.6537C34.7461 24.2679 29.2324 23.3499 23.7533 23.3499C23.7533 26.3812 23.8743 31.4046 23.9607 34.332C27.7978 35.0596 30.667 34.9037 30.667 34.9037C30.667 34.9037 44.6674 34.5053 45.0649 25.5498C45.497 16.5769 31.0646 7.98521 20.4347 5.28298C9.82205 2.49413 3.80708 4.46884 3.28855 4.72867C2.71817 5.00582 3.2367 5.10976 3.2367 5.10976C3.2367 5.10976 3.80708 5.19637 4.84415 5.54281C5.88121 5.88925 5.05156 6.40891 5.05156 6.40891C3.2367 7.0325 1.21443 6.66874 0.816885 5.83728C0.419344 5.02315 1.07615 4.2783 1.85395 3.18701C2.57989 2.06108 3.40954 2.09572 3.40954 2.09572C16.5457 -2.49462 32.5856 5.73335 32.5856 5.73335C47.5884 13.3204 50.1465 22.2413 49.87 25.7057C49.628 29.1181 48.3144 34.8863 39.0672 37.6925V37.6752ZM10.2023 25.2899C8.71585 25.9828 9.75291 27.0914 9.75291 27.0914C12.553 30.0881 15.9753 31.9762 19.2593 33.1541C19.6396 27.9575 19.605 26.1041 19.605 23.4884C14.5234 23.8349 11.5851 24.6663 10.2023 25.2899Z" fill="#818181"/>
</svg>
