<svg width="99" height="25" viewBox="0 0 99 25" fill="none" xmlns="http://www.w3.org/2000/svg">
<path d="M32.3629 0.0634857C28.7174 0.0585587 26.3032 2.04086 25.9635 5.00491C25.8843 5.68994 25.8027 6.37467 25.7187 7.05911H73.1507C73.1507 7.05911 73.2399 6.33703 73.3092 5.75746C73.6658 2.77152 72.4361 0.0638507 67.9627 0.0638507V0.0642157C67.9627 0.0642157 34.2847 0.0656755 32.3629 0.0634857ZM3.41575 0.0643981L2.58328 7.05911H24.0937L24.923 0.0645806H3.4154H3.41575V0.0643981ZM75.6216 0.0643981L74.7909 7.05911H98.1099C98.1099 7.05911 98.1382 6.80619 98.2415 5.98283C98.809 1.39159 95.9377 0.0643981 93.1654 0.0643981H75.6216ZM74.4696 9.72243L72.6526 24.9881L80.6978 24.9852L82.5163 9.72535L74.4696 9.72206V9.72243ZM89.7534 9.72243L87.9335 24.9881L95.9787 24.9852L97.7972 9.72535L89.7534 9.72206V9.72243ZM2.26947 9.72462L0.449219 24.9889H21.9583L22.7508 18.367L9.28231 18.3655L9.62301 15.51H23.0862L23.7753 9.72498H2.27053L2.26947 9.72462ZM25.4031 9.72462C24.813 13.7086 26.7461 15.5095 29.4859 15.5095C30.976 15.5095 40.3685 15.5051 40.3685 15.5051L40.0288 18.3649L24.3757 18.3664L23.5875 24.9883C23.5875 24.9883 40.6289 24.9941 41.3195 24.9883C41.8898 24.946 45.8763 24.8336 47.2334 21.4701C47.6735 20.3781 48.0627 16.4628 48.1717 15.6409C48.7986 10.8671 45.5947 9.729 43.0714 9.729C41.6803 9.729 28.15 9.72462 25.4031 9.72462ZM50.443 9.72462L48.6259 24.9889H56.6669L57.799 15.51H67.899C70.7633 15.51 72.303 13.9213 72.5889 11.7879C72.6802 11.1014 72.7628 10.4137 72.8365 9.72498H50.443V9.72462Z" fill="#818181"/>
</svg>
