<svg width="18" height="18" viewBox="0 0 18 18" fill="none" xmlns="http://www.w3.org/2000/svg">
<path d="M9 0C4.038 0 0 4.038 0 9C0 13.962 4.038 18 9 18C13.962 18 18 13.962 18 9C18 4.038 13.962 0 9 0ZM9 1.5C13.1512 1.5 16.5 4.84875 16.5 9C16.5018 10.7955 15.858 12.5317 14.686 13.892C13.514 15.2522 11.892 16.1456 10.116 16.4093V11.187H12.252L12.5873 9.01725H10.116V7.83225C10.116 6.93225 10.4123 6.132 11.2545 6.132H12.6083V4.239C12.3705 4.20675 11.8673 4.137 10.9163 4.137C8.93025 4.137 7.76625 5.1855 7.76625 7.575V9.01725H5.72475V11.187H7.76625V16.3905C6.01481 16.1022 4.42293 15.2006 3.27502 13.8468C2.12711 12.4929 1.49797 10.775 1.5 9C1.5 4.84875 4.84875 1.5 9 1.5Z" fill="#00A2AE"/>
</svg>
