<svg width="18" height="18" viewBox="0 0 18 18" fill="none" xmlns="http://www.w3.org/2000/svg">
<path d="M9 0C6.55338 0 6.24847 0.011814 5.29097 0.052319C4.32954 0.099575 3.67921 0.248656 3.10539 0.471434C2.50482 0.698161 1.96093 1.05314 1.51163 1.51163C1.05186 1.95988 0.696685 2.50408 0.471434 3.10539C0.248656 3.67921 0.099575 4.32954 0.052319 5.29097C0.00900113 6.24903 0 6.55338 0 9C0 11.4466 0.011814 11.7515 0.052319 12.709C0.099575 13.6676 0.248656 14.3208 0.471434 14.8946C0.698161 15.4952 1.05314 16.0391 1.51163 16.4884C1.95988 16.9481 2.50408 17.3033 3.10539 17.5286C3.67921 17.7485 4.33235 17.9004 5.29097 17.9477C6.24903 17.991 6.55338 18 9 18C11.4466 18 11.7515 17.9882 12.709 17.9477C13.6676 17.9004 14.3208 17.748 14.8946 17.5286C15.4952 17.3018 16.0391 16.9469 16.4884 16.4884C16.9487 16.0406 17.304 15.4963 17.5286 14.8946C17.7485 14.3208 17.9004 13.6676 17.9477 12.709C17.991 11.751 18 11.4466 18 9C18 6.55338 17.9882 6.24847 17.9477 5.29097C17.9004 4.33235 17.748 3.67583 17.5286 3.10539C17.3018 2.50482 16.9469 1.96093 16.4884 1.51163C16.0406 1.05127 15.4963 0.696001 14.8946 0.471434C14.3208 0.248656 13.6676 0.099575 12.709 0.052319C11.751 0.00900113 11.4466 0 9 0ZM9 1.6202C11.4027 1.6202 11.6896 1.63202 12.6393 1.67252C13.5152 1.71359 13.9922 1.85986 14.309 1.98362C14.7005 2.12816 15.0549 2.35821 15.3464 2.65702C15.6447 2.94721 15.8738 3.3008 16.0169 3.69159C16.1407 4.00831 16.287 4.48537 16.328 5.3613C16.3685 6.31091 16.3804 6.59839 16.3804 9.00056C16.3804 11.4027 16.3685 11.6902 16.3247 12.6398C16.2774 13.5158 16.1311 13.9928 16.0079 14.3095C15.8375 14.732 15.6473 15.0274 15.3334 15.3469C15.041 15.6439 14.6868 15.8728 14.296 16.0175C13.9832 16.1413 13.4994 16.2875 12.6201 16.3286C11.6655 16.3691 11.3842 16.3809 8.97525 16.3809C6.56632 16.3809 6.2856 16.3691 5.32979 16.3252C4.45387 16.278 3.97062 16.1317 3.65389 16.0085C3.22634 15.838 2.93324 15.6479 2.61933 15.334C2.3026 15.0173 2.1012 14.7157 1.94593 14.2966C1.81991 13.9838 1.6759 13.5 1.6292 12.6207C1.59714 11.6773 1.58195 11.3847 1.58195 8.98706C1.58195 6.59051 1.59714 6.29741 1.6292 5.34217C1.6759 4.46287 1.81991 3.98019 1.94593 3.66627C2.1012 3.23815 2.30316 2.94562 2.61933 2.62889C2.93268 2.31554 3.22634 2.11301 3.65389 1.95437C3.97062 1.83117 4.44206 1.6849 5.32135 1.64102C6.27603 1.6067 6.55732 1.59432 8.96287 1.59432L9 1.6202ZM9 4.38074C8.39318 4.38051 7.79226 4.49987 7.23159 4.73199C6.67092 4.96411 6.16148 5.30443 5.7324 5.73352C5.30331 6.16261 4.96298 6.67204 4.73086 7.23272C4.49875 7.79339 4.37939 8.3943 4.37961 9.00113C4.37939 9.60795 4.49875 10.2089 4.73086 10.7695C4.96298 11.3302 5.30331 11.8396 5.7324 12.2687C6.16148 12.6978 6.67092 13.0381 7.23159 13.2703C7.79226 13.5024 8.39318 13.6217 9 13.6215C9.60682 13.6217 10.2077 13.5024 10.7684 13.2703C11.3291 13.0381 11.8385 12.6978 12.2676 12.2687C12.6967 11.8396 13.037 11.3302 13.2691 10.7695C13.5013 10.2089 13.6206 9.60795 13.6204 9.00113C13.6206 8.3943 13.5013 7.79339 13.2691 7.23272C13.037 6.67204 12.6967 6.16261 12.2676 5.73352C11.8385 5.30443 11.3291 4.96411 10.7684 4.73199C10.2077 4.49987 9.60682 4.38051 9 4.38074ZM9 12.0013C7.34154 12.0013 5.99981 10.6596 5.99981 9.00113C5.99981 7.34267 7.34154 6.00094 9 6.00094C10.6585 6.00094 12.0002 7.34267 12.0002 9.00113C12.0002 10.6596 10.6585 12.0013 9 12.0013ZM14.8867 4.19621C14.8864 4.48293 14.7723 4.75781 14.5695 4.96045C14.3666 5.16309 14.0916 5.27691 13.8049 5.27691C13.6631 5.27691 13.5228 5.24899 13.3918 5.19473C13.2608 5.14048 13.1418 5.06096 13.0415 4.96071C12.9413 4.86046 12.8618 4.74145 12.8075 4.61047C12.7533 4.47949 12.7253 4.33911 12.7253 4.19734C12.7253 4.05557 12.7533 3.91518 12.8075 3.7842C12.8618 3.65322 12.9413 3.53421 13.0415 3.43396C13.1418 3.33372 13.2608 3.2542 13.3918 3.19994C13.5228 3.14569 13.6631 3.11776 13.8049 3.11776C14.3996 3.11776 14.8867 3.60158 14.8867 4.19621Z" fill="white"/>
</svg>
