<svg width="22" height="22" viewBox="0 0 22 22" fill="none" xmlns="http://www.w3.org/2000/svg">
<g opacity="0.5">
<circle r="11" transform="matrix(1 0 0 -1 11 11)" fill="#00A2AE"/>
<path fill-rule="evenodd" clip-rule="evenodd" d="M17 10.7491C17 10.5501 16.921 10.3594 16.7803 10.2187C16.6397 10.0781 16.4489 9.99906 16.25 9.99906L7.5605 9.99906L10.781 6.78006C10.9218 6.63923 11.0009 6.44822 11.0009 6.24906C11.0009 6.04989 10.9218 5.85889 10.781 5.71806C10.6402 5.57723 10.4492 5.49811 10.25 5.49811C10.0508 5.49811 9.85983 5.57723 9.719 5.71806L5.219 10.2181C5.14915 10.2877 5.09374 10.3705 5.05593 10.4616C5.01812 10.5527 4.99866 10.6504 4.99866 10.7491C4.99866 10.8477 5.01812 10.9454 5.05593 11.0365C5.09374 11.1276 5.14915 11.2104 5.219 11.2801L9.719 15.7801C9.85983 15.9209 10.0508 16 10.25 16C10.4492 16 10.6402 15.9209 10.781 15.7801C10.9218 15.6392 11.0009 15.4482 11.0009 15.2491C11.0009 15.0499 10.9218 14.8589 10.781 14.7181L7.5605 11.4991L16.25 11.4991C16.4489 11.4991 16.6397 11.42 16.7803 11.2794C16.921 11.1387 17 10.948 17 10.7491Z" fill="white"/>
</g>
</svg>
