<svg width="59" height="48" viewBox="0 0 59 48" fill="none" xmlns="http://www.w3.org/2000/svg">
<path fill-rule="evenodd" clip-rule="evenodd" d="M58.3146 38.6637C51.135 42.2581 41.8635 44.629 31.7354 45.0415C19.2551 45.5537 8.06686 42.9883 0.503906 38.5215V43.6664C7.70717 46.7154 17.0402 48.3561 27.244 47.9341C39.7054 47.4219 50.8747 43.9556 58.4424 38.8819C58.5702 38.806 58.4613 38.5926 58.3146 38.6637Z" fill="white"/>
<path fill-rule="evenodd" clip-rule="evenodd" d="M53.8382 25.7803C55.2249 25.7803 56.3371 26.1596 57.1748 26.9183C58.0125 27.677 58.4527 28.6965 58.4953 29.9863C58.5189 30.7355 58.4337 31.4658 58.235 32.1723C58.0409 32.8788 57.7428 33.5237 57.3547 34.1022C56.7773 34.951 56.0579 35.6054 55.2155 36.0559C54.3683 36.5111 53.4454 36.7434 52.4563 36.7434C51.0459 36.7434 49.9195 36.3451 49.0723 35.558C48.2252 34.7661 47.7756 33.6944 47.733 32.3383C47.7046 31.3994 47.8749 30.4842 48.2441 29.588C48.6133 28.6918 49.1339 27.9378 49.7964 27.3214C50.3265 26.8377 50.9465 26.4584 51.6517 26.1881C52.3569 25.913 53.0857 25.7803 53.8382 25.7803ZM57.3121 30.0669C57.2789 29.0047 56.9429 28.1654 56.304 27.5442C55.6651 26.9231 54.8179 26.6101 53.7578 26.6101C53.1331 26.6101 52.5367 26.7429 51.9593 27.0084C51.3867 27.274 50.8803 27.6438 50.4448 28.1275C49.9479 28.6965 49.5645 29.3509 49.3042 30.0859C49.0439 30.8209 48.9209 31.5796 48.9493 32.3525C48.9824 33.4289 49.309 34.2824 49.929 34.9131C50.549 35.5438 51.3725 35.8567 52.3995 35.8567C53.1472 35.8567 53.8098 35.7192 54.3872 35.4347C54.9694 35.1549 55.5042 34.7139 55.9964 34.1165C56.427 33.6043 56.7631 32.9879 56.9997 32.2624C57.2269 31.5369 57.3357 30.8019 57.3121 30.0669ZM36.0525 25.9794H37.7184L40.1795 35.245L46.4977 25.9794H48.2536L46.0481 36.5538H44.9454L46.9331 26.8946L40.3924 36.5538H39.4743L36.8855 26.942L34.9498 36.5538H33.847L36.0525 25.9794ZM34.6989 26.3588L34.3676 27.2929C34.0222 27.0985 33.6577 26.9515 33.2791 26.8567C32.9005 26.7618 32.5124 26.7097 32.1101 26.7097C31.2535 26.7097 30.5625 26.8851 30.0466 27.236C29.526 27.5822 29.2752 28.0421 29.2941 28.6017C29.3131 29.1612 29.8573 29.7634 30.9222 30.4036L30.9743 30.432C32.1527 31.1386 32.8958 31.6934 33.2081 32.0822C33.5205 32.4758 33.6861 32.9263 33.7003 33.4431C33.7287 34.3773 33.3406 35.1597 32.5361 35.7856C31.7315 36.4115 30.695 36.7245 29.4266 36.7245C28.8776 36.7245 28.3618 36.6723 27.8838 36.5633C27.4058 36.4542 26.9467 36.2977 26.5113 36.0843L26.8236 35.1028C27.2543 35.3399 27.685 35.5153 28.1251 35.6339C28.5653 35.7524 29.0102 35.8093 29.4645 35.8093C30.3685 35.8093 31.0973 35.6007 31.6463 35.1786C32.2 34.7614 32.4651 34.216 32.4414 33.5569C32.4319 33.1871 32.3136 32.8646 32.0959 32.5848C31.8782 32.3051 31.386 31.9352 30.6146 31.48C30.4868 31.3994 30.3069 31.2951 30.0656 31.1623C29.6207 30.9157 29.3273 30.7308 29.1995 30.6122C28.8256 30.2945 28.5558 29.991 28.3807 29.697C28.2056 29.4031 28.1157 29.1043 28.1062 28.7866C28.0778 27.8762 28.4044 27.1554 29.0812 26.6243C29.7627 26.0932 30.7045 25.8277 31.9113 25.8277C32.4556 25.8277 32.9573 25.8704 33.4069 25.9557C33.866 26.0411 34.2966 26.1738 34.6989 26.3588ZM26.8 25.9794H27.9169L25.6972 36.5538H24.5945L26.8 25.9794ZM19.0477 25.9794H21.7738C22.8244 25.9794 23.6337 26.1833 24.2064 26.5864C24.7791 26.9894 25.0772 27.568 25.1009 28.3219C25.1246 29.1328 24.8501 29.7966 24.2774 30.2993C23.7 30.8066 22.8623 31.1291 21.7643 31.2713C22.1619 31.3662 22.4695 31.5321 22.6919 31.7645C22.9144 31.9968 23.0942 32.3477 23.2267 32.8124L24.3105 36.549H23.1652L22.0909 32.8409C21.9536 32.3715 21.7264 32.0585 21.4046 31.8925C21.0875 31.7266 20.4865 31.646 19.6062 31.646H19.0193L18.0159 36.549H16.8659L19.0477 25.9794ZM20.0226 26.8424L19.2086 30.745C19.3175 30.7545 19.4358 30.764 19.5636 30.7687C19.6914 30.7734 19.8807 30.7782 20.1268 30.7782C21.3384 30.7782 22.2707 30.579 22.9096 30.176C23.5533 29.7729 23.8656 29.2039 23.842 28.4642C23.8278 27.9378 23.6195 27.5348 23.222 27.2597C22.8244 26.9847 22.266 26.8424 21.5324 26.8424H20.0226ZM9.33607 25.9794H10.4719L9.15622 32.2908C9.10889 32.4853 9.08049 32.6702 9.06629 32.8504C9.04736 33.0258 9.04264 33.1965 9.04737 33.3578C9.07104 34.107 9.3408 34.7187 9.85194 35.1929C10.3678 35.667 11.0162 35.9041 11.8018 35.9041C12.8288 35.9041 13.6524 35.6007 14.2676 34.9937C14.8876 34.3867 15.3277 33.4384 15.5975 32.1581L16.8848 25.9889H18.0207L16.7618 31.9921C16.421 33.6233 15.8436 34.8277 15.0391 35.6007C14.2345 36.3736 13.1507 36.7624 11.7971 36.7624C10.6802 36.7624 9.76675 36.4589 9.05683 35.852C8.34692 35.245 7.97777 34.4579 7.94937 33.4953C7.9399 33.2345 7.9541 32.95 7.98723 32.6275C8.02509 32.3051 8.08662 31.921 8.18127 31.4705L9.33607 25.9794ZM0.679847 25.9794H8.91486L8.73973 26.8424H5.19016L3.15982 36.5538H2.02396L4.0401 26.8424H0.5L0.679847 25.9794Z" fill="white"/>
<path fill-rule="evenodd" clip-rule="evenodd" d="M51.6801 11.4843H55.0687C56.1951 11.4843 57.047 11.6977 57.6292 12.1245C58.2113 12.5512 58.5 13.1819 58.5 14.0117C58.5 14.7894 58.2397 15.4153 57.7238 15.8942C57.2079 16.3732 56.4791 16.6529 55.5373 16.743C55.8496 16.89 56.091 17.0844 56.2614 17.3168C56.4365 17.5491 56.5738 17.8953 56.6779 18.3505L57.4872 21.9875H55.4142L54.6097 18.4928C54.5292 18.1276 54.373 17.8763 54.1317 17.7436C53.895 17.606 53.4643 17.5397 52.8443 17.5397H52.461L51.505 21.9875H49.4084L51.6801 11.4843ZM53.417 12.978L52.7876 16.0033H52.8254C53.1473 16.0223 53.3792 16.0317 53.5211 16.0317C54.4346 16.0317 55.1303 15.88 55.6035 15.5765C56.0816 15.273 56.3229 14.8321 56.3229 14.2441C56.3229 13.8363 56.1762 13.528 55.878 13.3052C55.5846 13.0823 55.1587 12.9732 54.6097 12.9732H53.417V12.978ZM44.8933 11.4843H47.4916L49.3421 21.9875H47.255L46.8432 19.498H42.1862L40.7048 21.9828H38.4567L44.8933 11.4843ZM45.9298 13.0728L43.0523 17.9569H46.6492L45.9298 13.0728ZM29.0007 11.4843H32.2616L33.1561 19.6261L37.5291 11.4843H40.8941L38.6035 21.9875H36.6346L38.6035 12.9353L33.6151 21.9875H31.7078L30.5862 12.9495L28.6931 21.9875H26.7384L29.0007 11.4843ZM19.4453 11.4843H21.575L20.2687 17.5017C20.2167 17.7104 20.1836 17.9095 20.1599 18.1087C20.1362 18.3031 20.1268 18.5023 20.1268 18.6919C20.1268 19.2847 20.2971 19.7683 20.6426 20.1287C20.9881 20.4891 21.4377 20.6693 22.0057 20.6693C22.7061 20.6693 23.2693 20.418 23.6858 19.9106C24.107 19.4032 24.4478 18.5592 24.7081 17.3784L26.0238 11.4796H28.0825L26.7432 17.791C26.4166 19.3084 25.8581 20.4274 25.0536 21.1482C24.2537 21.869 23.1699 22.2294 21.8022 22.2294C20.6237 22.2294 19.6961 21.9259 19.024 21.3142C18.3472 20.7072 18.0065 19.8726 18.0065 18.82C18.0065 18.5639 18.0207 18.2984 18.0538 18.0186C18.0869 17.7388 18.1343 17.4496 18.2005 17.1556L19.4453 11.4843ZM13.1507 11.252C14.5705 11.252 15.6685 11.636 16.4541 12.4137C17.2351 13.1866 17.6279 14.2678 17.6279 15.6571C17.6279 16.6387 17.4622 17.5539 17.1262 18.4074C16.7949 19.261 16.3122 20.0007 15.6874 20.6266C15.1716 21.1387 14.5705 21.5276 13.8843 21.7978C13.1933 22.0681 12.4455 22.2009 11.6315 22.2009C10.2921 22.2009 9.22721 21.7884 8.43684 20.9633C7.65121 20.1382 7.25839 19.0239 7.25839 17.625C7.25839 16.743 7.42403 15.8942 7.75059 15.0739C8.07715 14.2535 8.5457 13.528 9.1515 12.9069C9.66737 12.371 10.2684 11.9585 10.9452 11.6787C11.6315 11.3942 12.365 11.252 13.1507 11.252ZM15.4271 15.5955C15.4271 14.7135 15.2189 14.0259 14.7977 13.5328C14.3812 13.0396 13.7991 12.7931 13.0607 12.7931C12.6159 12.7931 12.1805 12.9021 11.764 13.1297C11.3475 13.3526 10.9783 13.6703 10.666 14.0828C10.2826 14.5713 9.98919 15.1403 9.78095 15.7899C9.57271 16.4395 9.46385 17.1034 9.46385 17.7767C9.46385 18.6445 9.67209 19.3321 10.0933 19.83C10.5098 20.3279 11.0872 20.5744 11.816 20.5744C12.3082 20.5744 12.7579 20.4559 13.1743 20.2141C13.5908 19.9722 13.9836 19.6024 14.3575 19.0997C14.6936 18.654 14.9539 18.1229 15.1479 17.497C15.3325 16.8805 15.4271 16.2451 15.4271 15.5955ZM2.78119 11.4843H4.91093L2.98943 20.38H7.40511L7.06435 21.9828H0.5L2.78119 11.4843Z" fill="white"/>
<path fill-rule="evenodd" clip-rule="evenodd" d="M0.683637 9.33581C7.86324 5.74148 17.1347 3.37055 27.2628 2.95801C39.7431 2.44589 50.9314 5.01123 58.4943 9.47806V4.33315C51.2911 1.28413 41.9581 -0.356548 31.759 0.0654772C19.2976 0.577598 8.12827 4.0439 0.560588 9.11768C0.432804 9.19829 0.541655 9.40693 0.683637 9.33581Z" fill="white"/>
</svg>
