<svg width="48" height="36" viewBox="0 0 48 36" fill="none" xmlns="http://www.w3.org/2000/svg">
<path d="M45 36C45 36 48 36 48 33C48 30 45 21 33 21C21 21 18 30 18 33C18 36 21 36 21 36H45ZM21.066 33C21.0438 32.9969 21.0218 32.9929 21 32.988C21.003 32.196 21.501 29.898 23.28 27.828C24.936 25.887 27.846 24 33 24C38.151 24 41.061 25.89 42.72 27.828C44.499 29.898 44.994 32.199 45 32.988L44.976 32.994C44.9621 32.9964 44.948 32.9984 44.934 33H21.066ZM33 15C34.5913 15 36.1174 14.3679 37.2426 13.2426C38.3679 12.1174 39 10.5913 39 9C39 7.4087 38.3679 5.88258 37.2426 4.75736C36.1174 3.63214 34.5913 3 33 3C31.4087 3 29.8826 3.63214 28.7574 4.75736C27.6321 5.88258 27 7.4087 27 9C27 10.5913 27.6321 12.1174 28.7574 13.2426C29.8826 14.3679 31.4087 15 33 15ZM42 9C42 10.1819 41.7672 11.3522 41.3149 12.4442C40.8626 13.5361 40.1997 14.5282 39.364 15.364C38.5282 16.1997 37.5361 16.8626 36.4442 17.3149C35.3522 17.7672 34.1819 18 33 18C31.8181 18 30.6478 17.7672 29.5558 17.3149C28.4639 16.8626 27.4718 16.1997 26.636 15.364C25.8003 14.5282 25.1374 13.5361 24.6851 12.4442C24.2328 11.3522 24 10.1819 24 9C24 6.61305 24.9482 4.32387 26.636 2.63604C28.3239 0.948212 30.6131 0 33 0C35.3869 0 37.6761 0.948212 39.364 2.63604C41.0518 4.32387 42 6.61305 42 9ZM20.808 21.84C19.6079 21.4621 18.3709 21.2137 17.118 21.099C16.414 21.0321 15.7072 20.999 15 21C3 21 0 30 0 33C0 35.001 0.999 36 3 36H15.648C15.2033 35.0634 14.9815 34.0366 15 33C15 29.97 16.131 26.874 18.27 24.288C18.999 23.406 19.848 22.581 20.808 21.84ZM14.76 24C12.9845 26.6678 12.0253 29.7955 12 33H3C3 32.22 3.492 29.91 5.28 27.828C6.915 25.92 9.756 24.06 14.76 24.003V24ZM4.5 10.5C4.5 8.11305 5.44821 5.82387 7.13604 4.13604C8.82387 2.44821 11.1131 1.5 13.5 1.5C15.8869 1.5 18.1761 2.44821 19.864 4.13604C21.5518 5.82387 22.5 8.11305 22.5 10.5C22.5 12.8869 21.5518 15.1761 19.864 16.864C18.1761 18.5518 15.8869 19.5 13.5 19.5C11.1131 19.5 8.82387 18.5518 7.13604 16.864C5.44821 15.1761 4.5 12.8869 4.5 10.5ZM13.5 4.5C11.9087 4.5 10.3826 5.13214 9.25736 6.25736C8.13214 7.38258 7.5 8.9087 7.5 10.5C7.5 12.0913 8.13214 13.6174 9.25736 14.7426C10.3826 15.8679 11.9087 16.5 13.5 16.5C15.0913 16.5 16.6174 15.8679 17.7426 14.7426C18.8679 13.6174 19.5 12.0913 19.5 10.5C19.5 8.9087 18.8679 7.38258 17.7426 6.25736C16.6174 5.13214 15.0913 4.5 13.5 4.5Z" fill="#D22222"/>
</svg>
