<svg width="23" height="24" viewBox="0 0 23 24" fill="none" xmlns="http://www.w3.org/2000/svg">
<path d="M22.3441 16.7526L17.3127 14.5963C17.0978 14.5047 16.8589 14.4854 16.6321 14.5413C16.4052 14.5972 16.2027 14.7253 16.0549 14.9063L13.8267 17.6286C10.3298 15.9799 7.51565 13.1657 5.8669 9.66876L8.58921 7.44059C8.77055 7.2931 8.89891 7.09054 8.95483 6.86358C9.01076 6.63663 8.99123 6.39762 8.89918 6.18276L6.74289 1.15142C6.64187 0.919803 6.46319 0.730695 6.23767 0.616705C6.01215 0.502716 5.75392 0.470989 5.50752 0.526995L0.835561 1.60514C0.597997 1.66 0.386041 1.79376 0.234287 1.98459C0.0825342 2.17543 -5.47252e-05 2.41206 2.72061e-08 2.65588C2.72061e-08 14.1785 9.33942 23.5 20.8441 23.5C21.088 23.5002 21.3247 23.4176 21.5157 23.2659C21.7066 23.1141 21.8404 22.9021 21.8953 22.6644L22.9734 17.9925C23.0291 17.7449 22.9967 17.4856 22.8818 17.2593C22.767 17.033 22.5768 16.8538 22.3441 16.7526Z" fill="#1E3460"/>
</svg>
