<svg width="16" height="16" viewBox="0 0 16 16" fill="none" xmlns="http://www.w3.org/2000/svg">
<path d="M15.5434 11.306L12.0434 9.80597C11.8939 9.74225 11.7278 9.72882 11.5699 9.76771C11.4121 9.8066 11.2712 9.8957 11.1684 10.0216L9.61844 11.9153C7.18586 10.7684 5.22819 8.81073 4.08125 6.37815L5.975 4.82815C6.10115 4.72555 6.19044 4.58465 6.22934 4.42676C6.26825 4.26888 6.25466 4.10262 6.19063 3.95315L4.69063 0.453154C4.62035 0.292032 4.49605 0.160481 4.33917 0.081185C4.18229 0.00188911 4.00266 -0.0201814 3.83125 0.0187791L0.58125 0.768779C0.41599 0.806941 0.268545 0.899991 0.16298 1.03274C0.0574141 1.16549 -3.80691e-05 1.33011 1.89256e-08 1.49972C1.89256e-08 9.51534 6.49688 15.9997 14.5 15.9997C14.6697 15.9998 14.8344 15.9424 14.9672 15.8368C15.1 15.7313 15.1931 15.5838 15.2313 15.4185L15.9813 12.1685C16.02 11.9962 15.9974 11.8159 15.9175 11.6585C15.8376 11.501 15.7053 11.3764 15.5434 11.306Z" fill="#5A5A5A"/>
</svg>
