<svg width="98" height="98" viewBox="0 0 98 98" fill="none" xmlns="http://www.w3.org/2000/svg">
<path d="M49 0C21.9406 0 0 21.9406 0 49C0 76.0594 21.9406 98 49 98C76.0594 98 98 76.0594 98 49C98 21.9406 76.0594 0 49 0ZM64.7609 49.7547L40.8734 67.1344C40.7425 67.2285 40.5881 67.2847 40.4273 67.2967C40.2665 67.3088 40.1055 67.2764 39.9619 67.2029C39.8184 67.1294 39.6978 67.0178 39.6136 66.8803C39.5293 66.7428 39.4846 66.5847 39.4844 66.4234V31.6859C39.4838 31.5244 39.5281 31.3658 39.6121 31.2278C39.6962 31.0898 39.8169 30.9778 39.9607 30.9042C40.1046 30.8305 40.266 30.7982 40.4271 30.8107C40.5882 30.8232 40.7427 30.8801 40.8734 30.975L64.7609 48.3438C64.8738 48.4236 64.9659 48.5293 65.0294 48.652C65.0929 48.7748 65.1261 48.911 65.1261 49.0492C65.1261 49.1874 65.0929 49.3236 65.0294 49.4464C64.9659 49.5692 64.8738 49.6749 64.7609 49.7547Z" fill="white"/>
</svg>
