<svg width="22" height="22" viewBox="0 0 22 22" fill="none" xmlns="http://www.w3.org/2000/svg">
<g opacity="0.5">
<circle r="11" transform="matrix(-1 0 0 1 11 11)" fill="#00A2AE"/>
<path fill-rule="evenodd" clip-rule="evenodd" d="M5 11.2509C5 11.4499 5.07902 11.6406 5.21967 11.7813C5.36032 11.9219 5.55109 12.0009 5.75 12.0009L14.4395 12.0009L11.219 15.2199C11.0782 15.3608 10.9991 15.5518 10.9991 15.7509C10.9991 15.9501 11.0782 16.1411 11.219 16.2819C11.3598 16.4228 11.5508 16.5019 11.75 16.5019C11.9492 16.5019 12.1402 16.4228 12.281 16.2819L16.781 11.7819C16.8508 11.7123 16.9063 11.6295 16.9441 11.5384C16.9819 11.4473 17.0013 11.3496 17.0013 11.2509C17.0013 11.1523 16.9819 11.0546 16.9441 10.9635C16.9063 10.8724 16.8508 10.7896 16.781 10.7199L12.281 6.21994C12.1402 6.07911 11.9492 6 11.75 6C11.5508 6 11.3598 6.07911 11.219 6.21994C11.0782 6.36077 10.9991 6.55178 10.9991 6.75095C10.9991 6.95011 11.0782 7.14112 11.219 7.28195L14.4395 10.5009L5.75 10.5009C5.55109 10.5009 5.36032 10.58 5.21967 10.7206C5.07902 10.8613 5 11.052 5 11.2509Z" fill="white"/>
</g>
</svg>
