<svg width="188" height="117" viewBox="0 0 188 117" fill="none" xmlns="http://www.w3.org/2000/svg">
<rect width="188" height="117" rx="8" fill="#34E0A1"/>
<g clip-path="url(#clip0_53_36163)">
<path d="M93.6947 64C104.738 64 113.691 55.2696 113.691 44.5C113.691 33.7304 104.738 25 93.6947 25C82.6512 25 73.6987 33.7304 73.6987 44.5C73.6987 55.2696 82.6512 64 93.6947 64Z" fill="#34E0A1"/>
<path d="M106.045 40.6959L108.458 38.1358H103.107C100.428 36.3513 97.1928 35.3121 93.6941 35.3121C90.1998 35.3121 86.9737 36.3536 84.2993 38.1358H78.9351L81.348 40.6959C79.869 42.0118 78.9418 43.9074 78.9418 46.0121C78.9418 49.984 82.2439 53.2042 86.3169 53.2042C88.2517 53.2042 90.0144 52.4765 91.3304 51.2869L93.6941 53.7968L96.0579 51.289C97.3738 52.4787 99.1343 53.2042 101.069 53.2042C105.142 53.2042 108.449 49.984 108.449 46.0121C108.451 43.9052 107.524 42.0097 106.045 40.6959ZM86.319 50.8794C83.562 50.8794 81.3279 48.7007 81.3279 46.0121C81.3279 43.3234 83.5621 41.1447 86.319 41.1447C89.076 41.1447 91.3102 43.3234 91.3102 46.0121C91.3102 48.7007 89.076 50.8794 86.319 50.8794ZM93.6963 45.8704C93.6963 42.6676 91.308 39.918 88.1555 38.7437C89.8602 38.0486 91.7302 37.663 93.6941 37.663C95.6579 37.663 97.5301 38.0486 99.2348 38.7437C96.0847 39.9202 93.6963 42.6677 93.6963 45.8704ZM101.071 50.8794C98.3144 50.8794 96.0802 48.7007 96.0802 46.0121C96.0802 43.3234 98.3144 41.1447 101.071 41.1447C103.828 41.1447 106.063 43.3234 106.063 46.0121C106.063 48.7007 103.828 50.8794 101.071 50.8794ZM101.071 43.4585C99.6258 43.4585 98.4551 44.6002 98.4551 46.0099C98.4551 47.4195 99.6258 48.5612 101.071 48.5612C102.517 48.5612 103.688 47.4195 103.688 46.0099C103.688 44.6024 102.517 43.4585 101.071 43.4585ZM88.9353 46.0121C88.9353 47.4217 87.7645 48.5634 86.319 48.5634C84.8736 48.5634 83.7028 47.4217 83.7028 46.0121C83.7028 44.6024 84.8736 43.4607 86.319 43.4607C87.7645 43.4585 88.9353 44.6024 88.9353 46.0121Z" fill="black"/>
<path d="M165.333 86.7876C164.75 86.7876 164.276 87.2494 164.276 87.8181C164.276 88.3868 164.75 88.8487 165.333 88.8487C165.916 88.8487 166.39 88.3868 166.39 87.8181C166.389 87.2494 165.916 86.7876 165.333 86.7876ZM165.333 88.6853C164.841 88.6853 164.444 88.2952 164.444 87.8181C164.444 87.3388 164.843 86.951 165.333 86.951C165.824 86.951 166.224 87.341 166.224 87.8181C166.224 88.2953 165.824 88.6853 165.333 88.6853ZM165.677 87.6416C165.677 87.4543 165.54 87.3431 165.339 87.3431H165.002V88.2822H165.167V87.9423H165.348L165.522 88.2822H165.701L165.509 87.9075C165.612 87.8617 165.677 87.7701 165.677 87.6416ZM165.333 87.7963H165.17V87.4848H165.333C165.444 87.4848 165.511 87.5392 165.511 87.6395C165.511 87.7419 165.442 87.7963 165.333 87.7963ZM37.9999 76.3577V73.8652H34.0812V88.6939H37.9999V79.8024C37.9999 78.1923 39.0589 77.4014 40.71 77.4014H42.8548V73.8653H41.0228C39.5884 73.8652 38.3418 74.5951 37.9999 76.3577ZM46.5256 68C45.1851 68 44.1573 69.0328 44.1573 70.34C44.1573 71.6168 45.1851 72.6495 46.5256 72.6495C47.8661 72.6495 48.8938 71.6168 48.8938 70.34C48.8938 69.0327 47.8661 68 46.5256 68ZM44.5707 88.694H48.4805V73.8652H44.5707V88.694ZM67.1046 81.2796C67.1046 85.5129 63.5858 88.9446 59.2448 88.9446C57.4931 88.9446 55.9046 88.3846 54.6311 87.439V93.0472H50.7213V73.8652H54.6311V75.1202C55.9046 74.1746 57.4931 73.6147 59.2448 73.6147C63.5858 73.6147 67.1046 77.0462 67.1046 81.2796ZM63.1703 81.2796C63.1703 78.981 61.2578 77.1159 58.9007 77.1159C56.5436 77.1159 54.6312 78.981 54.6312 81.2796C54.6312 83.5782 56.5437 85.4432 58.9007 85.4432C61.2578 85.4432 63.1703 83.5804 63.1703 81.2796ZM135.06 79.9789L132.778 79.3688C131.277 78.9875 130.694 78.5387 130.694 77.7653C130.694 77.0114 131.516 76.4841 132.691 76.4841C133.811 76.4841 134.689 77.1988 134.689 78.1138V78.1988H138.292V78.1138C138.292 75.423 136.043 73.6146 132.691 73.6146C129.374 73.6146 126.963 75.4208 126.963 77.9111C126.963 79.8481 128.279 81.3078 130.576 81.9135L132.761 82.4953C134.421 82.9441 135.037 83.4409 135.037 84.332C135.037 85.2711 134.146 85.9029 132.819 85.9029C131.436 85.9029 130.504 85.0488 130.504 83.7808V83.6958H126.679V83.7808C126.679 86.8224 129.19 88.9488 132.787 88.9488C136.253 88.9488 138.768 86.8725 138.768 84.0139C138.768 82.6108 138.125 80.7763 135.06 79.9789ZM80.9745 73.8652H84.8842V88.6939H80.9745V87.4389C79.701 88.3846 78.1124 88.9445 76.3609 88.9445C72.0199 88.9445 68.5011 85.5129 68.5011 81.2795C68.5011 77.0461 72.0199 73.6146 76.3609 73.6146C78.1124 73.6146 79.701 74.1746 80.9745 75.1201V73.8652ZM80.9745 81.2796C80.9745 78.9788 79.062 77.1159 76.7049 77.1159C74.3478 77.1159 72.4354 78.981 72.4354 81.2796C72.4354 83.5782 74.3478 85.4432 76.7049 85.4432C79.0642 85.4432 80.9745 83.5804 80.9745 81.2796ZM99.0021 68.5883H102.912V88.6961H99.0021V87.4411C97.7286 88.3868 96.1401 88.9467 94.3885 88.9467C90.0475 88.9467 86.5286 85.5151 86.5286 81.2817C86.5286 77.0483 90.0474 73.6168 94.3885 73.6168C96.1401 73.6168 97.7286 74.1767 99.0021 75.1223V68.5883ZM99.0021 81.2796C99.0021 78.981 97.0896 77.1159 94.7325 77.1159C92.3755 77.1159 90.463 78.981 90.463 81.2796C90.463 83.5782 92.3732 85.4432 94.7325 85.4432C97.0896 85.4432 99.0021 83.5804 99.0021 81.2796ZM121.065 88.694H124.974V73.8652H121.065V88.694ZM123.02 68C121.679 68 120.651 69.0328 120.651 70.34C120.651 71.6168 121.679 72.6495 123.02 72.6495C124.36 72.6495 125.388 71.6168 125.388 70.34C125.388 69.0327 124.36 68 123.02 68ZM155.668 81.2796C155.668 85.5129 152.149 88.9446 147.808 88.9446C143.467 88.9446 139.948 85.513 139.948 81.2796C139.948 77.0462 143.467 73.6147 147.808 73.6147C152.149 73.6147 155.668 77.0462 155.668 81.2796ZM152.077 81.2796C152.077 78.981 150.165 77.1159 147.808 77.1159C145.451 77.1159 143.538 78.981 143.538 81.2796C143.538 83.5782 145.448 85.4432 147.808 85.4432C150.165 85.4432 152.077 83.5804 152.077 81.2796ZM35.9981 68.5883H21V71.9893H26.552V88.6939H30.4484V71.9893H36.0004V68.5883H35.9981ZM111.846 84.6327L108.368 73.8653H104.261L109.478 88.694H114.183L119.431 73.8653H115.325L111.846 84.6327ZM161.396 76.3577V73.8652H157.477V88.6939H161.396V79.8024C161.396 78.1923 162.455 77.4014 164.106 77.4014H166.251V73.8653H164.419C162.985 73.8652 161.74 74.5951 161.396 76.3577Z" fill="white"/>
</g>
<defs>
<clipPath id="clip0_53_36163">
<rect width="145.39" height="68.0472" fill="white" transform="translate(21 25)"/>
</clipPath>
</defs>
</svg>
