<svg width="20" height="16" viewBox="0 0 20 16" fill="none" xmlns="http://www.w3.org/2000/svg">
<path d="M19.2405 2.26913C18.5485 2.57568 17.8145 2.77679 17.063 2.86577C17.8546 2.39211 18.447 1.64677 18.7298 0.768653C17.9857 1.21038 17.1714 1.52144 16.3223 1.68833C15.9676 1.30995 15.5389 1.00846 15.0629 0.80254C14.5868 0.596618 14.0736 0.490653 13.5549 0.491213C11.4611 0.491213 9.76337 2.18849 9.76337 4.28273C9.76337 4.57961 9.79697 4.86929 9.86177 5.14697C6.71057 4.98881 3.91697 3.47921 2.04689 1.18505C1.7097 1.76371 1.53252 2.42165 1.53353 3.09137C1.53303 3.71562 1.68674 4.33032 1.98099 4.88085C2.27525 5.43139 2.70094 5.90072 3.22025 6.24713C2.61825 6.22801 2.02953 6.06542 1.50305 5.77289C1.50257 5.78873 1.50257 5.80433 1.50257 5.82065C1.50257 7.65713 2.80937 9.18953 4.54361 9.53825C3.98519 9.68942 3.39969 9.71158 2.83145 9.60305C3.31385 11.1091 4.71401 12.2056 6.37313 12.2363C5.03007 13.2903 3.37157 13.862 1.66433 13.8595C1.35833 13.8595 1.05665 13.8417 0.759766 13.8064C2.49337 14.9203 4.511 15.5115 6.57161 15.5095C13.5455 15.5095 17.3591 9.73241 17.3591 4.72265C17.3591 4.55849 17.3553 4.39457 17.3481 4.23161C18.0908 3.69543 18.7316 3.03082 19.2405 2.26913Z" fill="#00A2AE"/>
</svg>
