<svg width="54" height="43" viewBox="0 0 54 43" fill="none" xmlns="http://www.w3.org/2000/svg">
<path d="M6.18873 0.479981C3.21185 0.479981 0.759766 2.93076 0.759766 5.90607L0.759766 36.6539H6.47104C7.27814 39.763 10.0759 42.08 13.4274 42.08C16.7788 42.08 19.5766 39.763 20.3837 36.6539L33.6159 36.6539C34.423 39.763 37.2207 42.08 40.5722 42.08C43.9237 42.08 46.7214 39.763 47.5285 36.6539H53.2398L53.2398 17.7747C53.2398 16.7582 52.9285 15.7544 52.391 14.8935L44.9841 3.02301C44.4993 2.24468 43.824 1.60271 43.0219 1.15775C42.2199 0.712791 41.3176 0.479523 40.4003 0.479981L6.18873 0.479981ZM6.18873 4.09737L15.237 4.09737L15.237 14.9495L4.37908 14.9495L4.37908 5.90607C4.37908 4.88777 5.17171 4.09737 6.18873 4.09737ZM18.8563 4.09737L29.7143 4.09737L29.7143 14.9495L18.8563 14.9495L18.8563 4.09737ZM33.3336 4.09737L40.4021 4.09737C41.0318 4.09737 41.5964 4.4157 41.9294 4.94565L48.151 14.9495L33.3336 14.9495V4.09737ZM4.37908 18.5669L49.6205 18.5669V22.1843H44.1915L44.1915 25.8017H49.6205V33.0365H47.5285C46.7214 29.9274 43.9237 27.6104 40.5722 27.6104C37.2207 27.6104 34.423 29.9274 33.6159 33.0365L20.3837 33.0365C19.5766 29.9274 16.7788 27.6104 13.4274 27.6104C10.0759 27.6104 7.27814 29.9274 6.47104 33.0365H4.37908L4.37908 18.5669ZM13.4274 31.2278C15.4487 31.2278 17.0467 32.8249 17.0467 34.8452C17.0467 36.8655 15.4487 38.4626 13.4274 38.4626C11.406 38.4626 9.80804 36.8655 9.80804 34.8452C9.80804 32.8249 11.406 31.2278 13.4274 31.2278ZM40.5722 31.2278C42.5936 31.2278 44.1915 32.8249 44.1915 34.8452C44.1915 36.8655 42.5936 38.4626 40.5722 38.4626C38.5508 38.4626 36.9529 36.8655 36.9529 34.8452C36.9529 32.8249 38.5508 31.2278 40.5722 31.2278Z" fill="#D22222"/>
</svg>
