<svg width="25" height="25" viewBox="0 0 25 25" fill="none" xmlns="http://www.w3.org/2000/svg">
<path fill-rule="evenodd" clip-rule="evenodd" d="M20.5373 4.0107C19.4285 2.89455 18.1092 2.00953 16.6558 1.4069C15.2025 0.804281 13.644 0.49604 12.0707 0.500038C5.47333 0.500038 0.102667 5.86937 0.1 12.4694C0.1 14.5787 0.650666 16.6374 1.69733 18.4534L0 24.6547L6.34533 22.9894C8.10052 23.9448 10.0669 24.4458 12.0653 24.4467H12.0707C18.6667 24.4467 24.0373 19.0774 24.04 12.4774C24.0445 10.9047 23.7373 9.34669 23.1361 7.89345C22.5349 6.44021 21.6516 5.12053 20.5373 4.0107ZM12.0707 22.4267H12.0667C10.2847 22.4269 8.53551 21.9475 7.00267 21.0387L6.64 20.8227L2.87467 21.8107L3.87867 18.14L3.64267 17.764C2.64638 16.1779 2.11898 14.3424 2.12133 12.4694C2.124 6.98404 6.58667 2.52137 12.0747 2.52137C13.3817 2.51847 14.6763 2.77481 15.8835 3.27557C17.0908 3.77633 18.1868 4.51156 19.108 5.43871C20.0342 6.36143 20.7683 7.45856 21.2678 8.6667C21.7674 9.87484 22.0226 11.17 22.0187 12.4774C22.016 17.9627 17.5533 22.4267 12.0707 22.4267ZM17.528 14.9747C17.228 14.824 15.7587 14.1014 15.484 14.0014C15.2107 13.9014 15.012 13.852 14.812 14.1507C14.612 14.4494 14.0387 15.1227 13.864 15.3227C13.6893 15.5227 13.5147 15.5467 13.216 15.3974C12.9173 15.248 11.9533 14.932 10.8107 13.9134C9.92133 13.12 9.32133 12.1414 9.14667 11.8414C8.972 11.5414 9.128 11.38 9.27867 11.2307C9.41333 11.0974 9.57733 10.8814 9.72667 10.7067C9.876 10.532 9.92533 10.408 10.0253 10.208C10.1253 10.008 10.076 9.83337 10 9.68404C9.92533 9.53337 9.32667 8.06137 9.07733 7.46271C8.836 6.88271 8.58933 6.96004 8.40533 6.95204C8.21477 6.94424 8.02406 6.94069 7.83333 6.94137C7.68167 6.94524 7.53245 6.98039 7.39501 7.04464C7.25758 7.10888 7.1349 7.20082 7.03467 7.3147C6.76 7.61471 5.988 8.33737 5.988 9.80937C5.988 11.2814 7.06 12.704 7.20933 12.904C7.35867 13.104 9.31867 16.124 12.3187 17.42C13.0333 17.728 13.5907 17.912 14.024 18.0507C14.74 18.2787 15.392 18.2454 15.908 18.1694C16.4827 18.084 17.6773 17.4467 17.9267 16.748C18.176 16.0494 18.176 15.4507 18.1013 15.3254C18.0267 15.2 17.8253 15.124 17.528 14.9747Z" fill="#1E9F13"/>
</svg>
