<svg width="25" height="24" viewBox="0 0 25 24" fill="none" xmlns="http://www.w3.org/2000/svg">
<g clip-path="url(#clip0_1488_6475)">
<path d="M12.834 22.5C10.0492 22.5 7.3785 21.3938 5.40936 19.4246C3.44023 17.4555 2.33398 14.7848 2.33398 12C2.33398 9.21523 3.44023 6.54451 5.40936 4.57538C7.3785 2.60625 10.0492 1.5 12.834 1.5C15.6188 1.5 18.2895 2.60625 20.2586 4.57538C22.2277 6.54451 23.334 9.21523 23.334 12C23.334 14.7848 22.2277 17.4555 20.2586 19.4246C18.2895 21.3938 15.6188 22.5 12.834 22.5ZM12.834 24C16.0166 24 19.0688 22.7357 21.3193 20.4853C23.5697 18.2348 24.834 15.1826 24.834 12C24.834 8.8174 23.5697 5.76516 21.3193 3.51472C19.0688 1.26428 16.0166 0 12.834 0C9.65139 0 6.59914 1.26428 4.3487 3.51472C2.09827 5.76516 0.833984 8.8174 0.833984 12C0.833984 15.1826 2.09827 18.2348 4.3487 20.4853C6.59914 22.7357 9.65139 24 12.834 24Z" fill="#818181" fill-opacity="0.5"/>
<path d="M7.80237 6.96839C7.87204 6.89854 7.9548 6.84313 8.04592 6.80532C8.13704 6.76751 8.23472 6.74805 8.33337 6.74805C8.43202 6.74805 8.5297 6.76751 8.62082 6.80532C8.71194 6.84313 8.7947 6.89854 8.86437 6.96839L12.8334 10.9389L16.8024 6.96839C16.8721 6.89866 16.9549 6.84334 17.046 6.8056C17.1371 6.76786 17.2348 6.74844 17.3334 6.74844C17.432 6.74844 17.5296 6.76786 17.6207 6.8056C17.7119 6.84334 17.7946 6.89866 17.8644 6.96839C17.9341 7.03812 17.9894 7.1209 18.0272 7.21201C18.0649 7.30312 18.0843 7.40077 18.0843 7.49939C18.0843 7.598 18.0649 7.69565 18.0272 7.78676C17.9894 7.87787 17.9341 7.96066 17.8644 8.03039L13.8939 11.9994L17.8644 15.9684C17.9341 16.0381 17.9894 16.1209 18.0272 16.212C18.0649 16.3031 18.0843 16.4008 18.0843 16.4994C18.0843 16.598 18.0649 16.6957 18.0272 16.7868C17.9894 16.8779 17.9341 16.9607 17.8644 17.0304C17.7946 17.1001 17.7119 17.1554 17.6207 17.1932C17.5296 17.2309 17.432 17.2503 17.3334 17.2503C17.2348 17.2503 17.1371 17.2309 17.046 17.1932C16.9549 17.1554 16.8721 17.1001 16.8024 17.0304L12.8334 13.0599L8.86437 17.0304C8.79464 17.1001 8.71186 17.1554 8.62075 17.1932C8.52964 17.2309 8.43199 17.2503 8.33337 17.2503C8.23476 17.2503 8.13711 17.2309 8.046 17.1932C7.95489 17.1554 7.8721 17.1001 7.80237 17.0304C7.73264 16.9607 7.67733 16.8779 7.63959 16.7868C7.60185 16.6957 7.58242 16.598 7.58242 16.4994C7.58242 16.4008 7.60185 16.3031 7.63959 16.212C7.67733 16.1209 7.73264 16.0381 7.80237 15.9684L11.7729 11.9994L7.80237 8.03039C7.73253 7.96072 7.67711 7.87796 7.6393 7.78684C7.60149 7.69572 7.58203 7.59804 7.58203 7.49939C7.58203 7.40074 7.60149 7.30305 7.6393 7.21194C7.67711 7.12082 7.73253 7.03806 7.80237 6.96839Z" fill="#818181" fill-opacity="0.5"/>
</g>
<defs>
<clipPath id="clip0_1488_6475">
<rect width="24" height="24" fill="white" transform="translate(0.833984)"/>
</clipPath>
</defs>
</svg>
