<svg width="22" height="16" viewBox="0 0 22 16" fill="none" xmlns="http://www.w3.org/2000/svg">
<path d="M21.125 7.93536C21.125 7.88458 21.125 7.82687 21.1227 7.75993C21.1205 7.57295 21.116 7.36288 21.1114 7.13897C21.0934 6.49492 21.0617 5.85318 21.012 5.24838C20.9442 4.41505 20.8448 3.72022 20.7092 3.19852C20.5661 2.65408 20.2856 2.15755 19.8957 1.75853C19.5058 1.35952 19.0203 1.07201 18.4875 0.924746C17.8479 0.749307 16.5959 0.640812 14.833 0.573869C13.9946 0.541551 13.0973 0.520775 12.2001 0.509233C11.8859 0.504617 11.5944 0.502308 11.3322 0.5H10.6678C10.4056 0.502308 10.1141 0.504617 9.79992 0.509233C8.90268 0.520775 8.00544 0.541551 7.16696 0.573869C5.40413 0.643121 4.1498 0.751616 3.51247 0.924746C2.97956 1.07165 2.4938 1.35904 2.10389 1.75811C1.71397 2.15717 1.43359 2.65391 1.29085 3.19852C1.15299 3.72022 1.0558 4.41505 0.988002 5.24838C0.938281 5.85318 0.906641 6.49492 0.88856 7.13897C0.88178 7.36288 0.87952 7.57295 0.87726 7.75993C0.87726 7.82687 0.875 7.88458 0.875 7.93536V8.06463C0.875 8.11542 0.875 8.17313 0.87726 8.24007C0.87952 8.42705 0.88404 8.63712 0.88856 8.86103C0.906641 9.50508 0.938281 10.1468 0.988002 10.7516C1.0558 11.5849 1.15525 12.2798 1.29085 12.8015C1.58013 13.9072 2.42991 14.7798 3.51247 15.0753C4.1498 15.2507 5.40413 15.3592 7.16696 15.4261C8.00544 15.4584 8.90268 15.4792 9.79992 15.4908C10.1141 15.4954 10.4056 15.4977 10.6678 15.5H11.3322C11.5944 15.4977 11.8859 15.4954 12.2001 15.4908C13.0973 15.4792 13.9946 15.4584 14.833 15.4261C16.5959 15.3569 17.8502 15.2484 18.4875 15.0753C19.5701 14.7798 20.4199 13.9095 20.7092 12.8015C20.847 12.2798 20.9442 11.5849 21.012 10.7516C21.0617 10.1468 21.0934 9.50508 21.1114 8.86103C21.1182 8.63712 21.1205 8.42705 21.1227 8.24007C21.1227 8.17313 21.125 8.11542 21.125 8.06463V7.93536ZM19.4978 8.0554C19.4978 8.10388 19.4978 8.15697 19.4955 8.2193C19.4932 8.39935 19.4887 8.59788 19.4842 8.81256C19.4684 9.42659 19.4367 10.0406 19.3893 10.6108C19.3283 11.3541 19.2424 11.9635 19.1362 12.3721C18.996 12.9054 18.5847 13.3278 18.0649 13.4686C17.5903 13.5979 16.3947 13.7018 14.7698 13.7641C13.9471 13.7964 13.0612 13.8172 12.1775 13.8287C11.8679 13.8333 11.5808 13.8356 11.3232 13.8356H10.6768L9.82252 13.8287C8.93884 13.8172 8.05516 13.7964 7.23025 13.7641C5.60527 13.6994 4.40745 13.5979 3.9351 13.4686C3.41529 13.3255 3.00396 12.9054 2.86384 12.3721C2.75762 11.9635 2.67174 11.3541 2.61071 10.6108C2.56325 10.0406 2.53387 9.42659 2.51579 8.81256C2.50901 8.59788 2.50675 8.39704 2.50449 8.2193C2.50449 8.15697 2.50223 8.10157 2.50223 8.0554V7.9446C2.50223 7.89612 2.50223 7.84303 2.50449 7.7807C2.50675 7.60065 2.51127 7.40212 2.51579 7.18744C2.53161 6.57341 2.56325 5.95937 2.61071 5.3892C2.67174 4.64589 2.75762 4.03647 2.86384 3.62789C3.00396 3.09464 3.41529 2.67221 3.9351 2.53139C4.40971 2.40212 5.60527 2.29825 7.23025 2.23592C8.0529 2.2036 8.93884 2.18283 9.82252 2.17128C10.1321 2.16667 10.4192 2.16436 10.6768 2.16436H11.3232L12.1775 2.17128C13.0612 2.18283 13.9448 2.2036 14.7698 2.23592C16.3947 2.30055 17.5925 2.40212 18.0649 2.53139C18.5847 2.67452 18.996 3.09464 19.1362 3.62789C19.2424 4.03647 19.3283 4.64589 19.3893 5.3892C19.4367 5.95937 19.4661 6.57341 19.4842 7.18744C19.491 7.40212 19.4932 7.60295 19.4955 7.7807C19.4955 7.84303 19.4978 7.89843 19.4978 7.9446V8.0554ZM8.98856 11.0933L14.2319 7.97692L8.98856 4.90674V11.0933Z" fill="white"/>
</svg>
